ffmpeg started on 2025-05-28 at 21:17:30
Report written to "D:\Convert\FFMetrics\reports\psnr_report-6.txt"
Log level: 32
Command line:
ffmpeg -hide_banner -nostdin -i "G:\\\xc0\xed\xe8\xec\xe5\\\xce\xed\xe3\xee\xe8\xed\xe3\xe8\\!_36_\xce\xf1\xe5\xed\xfc_2024\\JamClub\\\xcb\xfe\xe1\xee\xe2\xfc \xcc\xf3\xf0\xe0\xe8\\JamClub_Murai_no_Koi_01_1080p_HEVC.mkv" -i "G:\\\xc0\xed\xe8\xec\xe5\\\xce\xed\xe3\xee\xe8\xed\xe3\xe8\\!_36_\xce\xf1\xe5\xed\xfc_2024\\JamClub\\\xcb\xfe\xe1\xee\xe2\xfc \xcc\xf3\xf0\xe0\xe8\\JamClub_Murai_no_Koi_01_1080p.mp4" -lavfi "[0:v]settb=AVTB,setpts=PTS-STARTPTS,format=pix_fmts=yuv420p10,fps=24000/1001,scale=1920:1080:flags=bicubic[main];[1:v]settb=AVTB,setpts=PTS-STARTPTS,format=pix_fmts=yuv420p,fps=24000/1001,scale=1920:1080:flags=bicubic[ref];[main][ref]psnr=eof_action=endall:stats_file='D\\:/Convert/FFMetrics/logs/psnr_logfile-6.txt'" -f null -
Input #0, matroska,webm, from 'G:\Аниме\Онгоинги\!_36_Осень_2024\JamClub\Любовь Мураи\JamClub_Murai_no_Koi_01_1080p_HEVC.mkv':
  Metadata:
    COMPATIBLE_BRANDS: isomiso2avc1mp41
    MAJOR_BRAND     : isom
    MINOR_VERSION   : 512
    ENCODER         : Lavf61.7.100
  Duration: 00:24:04.29, start: -0.021000, bitrate: 1432 kb/s
  Stream #0:0: Video: hevc (Main 10), yuv420p10le(tv, bt709, progressive), 1920x1080 [SAR 1:1 DAR 16:9], 23.98 fps, 23.98 tbr, 1k tbn (default)
      Metadata:
        HANDLER_NAME    : VideoHandler
        VENDOR_ID       : [0][0][0][0]
        ENCODER         : Lavc61.19.100 libx265
        BPS             : 1234483
        DURATION        : 00:24:04.192708333
        NUMBER_OF_FRAMES: 34626
        NUMBER_OF_BYTES : 222853872
        _STATISTICS_WRITING_APP: mkvpropedit v66.0.0 ('Josie') 64-bit
        _STATISTICS_WRITING_DATE_UTC: 2025-05-28 11:42:48
        _STATISTICS_TAGS: BPS DURATION NUMBER_OF_FRAMES NUMBER_OF_BYTES
  Stream #0:1(eng): Audio: aac (LC), 48000 Hz, stereo, fltp (default)
      Metadata:
        HANDLER_NAME    : SoundHandler
        VENDOR_ID       : [0][0][0][0]
        ENCODER         : Lavc61.19.100 aac
        BPS             : 194103
        DURATION        : 00:24:04.269000000
        NUMBER_OF_FRAMES: 67701
        NUMBER_OF_BYTES : 35042248
        _STATISTICS_WRITING_APP: mkvpropedit v66.0.0 ('Josie') 64-bit
        _STATISTICS_WRITING_DATE_UTC: 2025-05-28 11:42:48
        _STATISTICS_TAGS: BPS DURATION NUMBER_OF_FRAMES NUMBER_OF_BYTES
Input #1, mov,mp4,m4a,3gp,3g2,mj2, from 'G:\Аниме\Онгоинги\!_36_Осень_2024\JamClub\Любовь Мураи\JamClub_Murai_no_Koi_01_1080p.mp4':
  Metadata:
    major_brand     : isom
    minor_version   : 512
    compatible_brands: isomiso2avc1mp41
    encoder         : Lavf60.16.100
  Duration: 00:24:04.27, start: 0.000000, bitrate: 4371 kb/s
  Stream #1:0[0x1](und): Video: h264 (High) (avc1 / 0x31637661), yuv420p(tv, bt709, progressive), 1920x1080 [SAR 1:1 DAR 16:9], 4173 kb/s, 23.98 fps, 23.98 tbr, 90k tbn (default)
      Metadata:
        handler_name    : VideoHandler
        vendor_id       : [0][0][0][0]
  Stream #1:1[0x2](eng): Audio: aac (LC) (mp4a / 0x6134706D), 48000 Hz, stereo, fltp, 191 kb/s (default)
      Metadata:
        handler_name    : SoundHandler
        vendor_id       : [0][0][0][0]
Stream mapping:
  Stream #0:0 (hevc) -> settb:default
  Stream #1:0 (h264) -> settb:default
  psnr:default -> Stream #0:0 (wrapped_avframe)
  Stream #0:1 -> #0:1 (aac (native) -> pcm_s16le (native))
Output #0, null, to 'pipe:':
  Metadata:
    COMPATIBLE_BRANDS: isomiso2avc1mp41
    MAJOR_BRAND     : isom
    MINOR_VERSION   : 512
    encoder         : Lavf61.7.100
  Stream #0:0: Video: wrapped_avframe, yuv420p10le(tv, bt709, progressive), 1920x1080 [SAR 1:1 DAR 16:9], q=2-31, 200 kb/s, 23.98 fps, 23.98 tbn
      Metadata:
        encoder         : Lavc61.19.100 wrapped_avframe
  Stream #0:1(eng): Audio: pcm_s16le, 48000 Hz, stereo, s16, 1536 kb/s (default)
      Metadata:
        HANDLER_NAME    : SoundHandler
        VENDOR_ID       : [0][0][0][0]
        _STATISTICS_TAGS: BPS DURATION NUMBER_OF_FRAMES NUMBER_OF_BYTES
        BPS             : 194103
        DURATION        : 00:24:04.269000000
        NUMBER_OF_FRAMES: 67701
        NUMBER_OF_BYTES : 35042248
        _STATISTICS_WRITING_APP: mkvpropedit v66.0.0 ('Josie') 64-bit
        _STATISTICS_WRITING_DATE_UTC: 2025-05-28 11:42:48
        encoder         : Lavc61.19.100 pcm_s16le
frame=  121 fps=0.0 q=-0.0 size=N/A time=00:00:05.04 bitrate=N/A speed=9.71x    frame=  281 fps=274 q=-0.0 size=N/A time=00:00:11.72 bitrate=N/A speed=11.4x    frame=  483 fps=312 q=-0.0 size=N/A time=00:00:20.14 bitrate=N/A speed=  13x    frame=  747 fps=363 q=-0.0 size=N/A time=00:00:31.15 bitrate=N/A speed=15.1x    frame=  999 fps=387 q=-0.0 size=N/A time=00:00:41.66 bitrate=N/A speed=16.1x    frame= 1229 fps=398 q=-0.0 size=N/A time=00:00:51.25 bitrate=N/A speed=16.6x    frame= 1518 fps=420 q=-0.0 size=N/A time=00:01:03.31 bitrate=N/A speed=17.5x    frame= 1777 fps=431 q=-0.0 size=N/A time=00:01:14.11 bitrate=N/A speed=  18x    frame= 2050 fps=441 q=-0.0 size=N/A time=00:01:25.50 bitrate=N/A speed=18.4x    frame= 2296 fps=446 q=-0.0 size=N/A time=00:01:35.76 bitrate=N/A speed=18.6x    frame= 2568 fps=453 q=-0.0 size=N/A time=00:01:47.10 bitrate=N/A speed=18.9x    frame= 2825 fps=456 q=-0.0 size=N/A time=00:01:57.82 bitrate=N/A speed=  19x    frame= 3091 fps=461 q=-0.0 size=N/A time=00:02:08.92 bitrate=N/A speed=19.2x    frame= 3342 fps=463 q=-0.0 size=N/A time=00:02:19.38 bitrate=N/A speed=19.3x    frame= 3559 fps=460 q=-0.0 size=N/A time=00:02:28.43 bitrate=N/A speed=19.2x    frame= 3727 fps=452 q=-0.0 size=N/A time=00:02:35.44 bitrate=N/A speed=18.8x    frame= 3885 fps=443 q=-0.0 size=N/A time=00:02:42.03 bitrate=N/A speed=18.5x    frame= 4023 fps=434 q=-0.0 size=N/A time=00:02:47.79 bitrate=N/A speed=18.1x    frame= 4185 fps=427 q=-0.0 size=N/A time=00:02:54.54 bitrate=N/A speed=17.8x    frame= 4397 fps=427 q=-0.0 size=N/A time=00:03:03.39 bitrate=N/A speed=17.8x    frame= 4563 fps=421 q=-0.0 size=N/A time=00:03:10.31 bitrate=N/A speed=17.6x    frame= 4768 fps=420 q=-0.0 size=N/A time=00:03:18.86 bitrate=N/A speed=17.5x    frame= 4932 fps=416 q=-0.0 size=N/A time=00:03:25.70 bitrate=N/A speed=17.3x    frame= 5067 fps=409 q=-0.0 size=N/A time=00:03:31.33 bitrate=N/A speed=17.1x    frame= 5235 fps=406 q=-0.0 size=N/A time=00:03:38.34 bitrate=N/A speed=16.9x    frame= 5435 fps=405 q=-0.0 size=N/A time=00:03:46.68 bitrate=N/A speed=16.9x    frame= 5632 fps=405 q=-0.0 size=N/A time=00:03:54.90 bitrate=N/A speed=16.9x    frame= 5886 fps=408 q=-0.0 size=N/A time=00:04:05.49 bitrate=N/A speed=  17x    frame= 6160 fps=412 q=-0.0 size=N/A time=00:04:16.92 bitrate=N/A speed=17.2x    frame= 6418 fps=415 q=-0.0 size=N/A time=00:04:27.68 bitrate=N/A speed=17.3x    frame= 6623 fps=414 q=-0.0 size=N/A time=00:04:36.23 bitrate=N/A speed=17.3x    frame= 6851 fps=415 q=-0.0 size=N/A time=00:04:45.74 bitrate=N/A speed=17.3x    frame= 7086 fps=416 q=-0.0 size=N/A time=00:04:55.54 bitrate=N/A speed=17.4x    frame= 7323 fps=418 q=-0.0 size=N/A time=00:05:05.43 bitrate=N/A speed=17.4x    frame= 7599 fps=421 q=-0.0 size=N/A time=00:05:16.94 bitrate=N/A speed=17.6x    frame= 7834 fps=422 q=-0.0 size=N/A time=00:05:26.74 bitrate=N/A speed=17.6x    frame= 8075 fps=423 q=-0.0 size=N/A time=00:05:36.79 bitrate=N/A speed=17.6x    frame= 8317 fps=424 q=-0.0 size=N/A time=00:05:46.88 bitrate=N/A speed=17.7x    frame= 8562 fps=426 q=-0.0 size=N/A time=00:05:57.10 bitrate=N/A speed=17.8x    frame= 8789 fps=426 q=-0.0 size=N/A time=00:06:06.57 bitrate=N/A speed=17.8x    frame= 8929 fps=422 q=-0.0 size=N/A time=00:06:12.41 bitrate=N/A speed=17.6x    frame= 9119 fps=421 q=-0.0 size=N/A time=00:06:20.33 bitrate=N/A speed=17.6x    frame= 9359 fps=422 q=-0.0 size=N/A time=00:06:30.34 bitrate=N/A speed=17.6x    frame= 9591 fps=423 q=-0.0 size=N/A time=00:06:40.02 bitrate=N/A speed=17.6x    frame= 9810 fps=423 q=-0.0 size=N/A time=00:06:49.15 bitrate=N/A speed=17.6x    frame=10047 fps=423 q=-0.0 size=N/A time=00:06:59.04 bitrate=N/A speed=17.7x    frame=10260 fps=423 q=-0.0 size=N/A time=00:07:07.92 bitrate=N/A speed=17.7x    frame=10484 fps=423 q=-0.0 size=N/A time=00:07:17.27 bitrate=N/A speed=17.7x    frame=10713 fps=424 q=-0.0 size=N/A time=00:07:26.82 bitrate=N/A speed=17.7x    frame=10931 fps=424 q=-0.0 size=N/A time=00:07:35.91 bitrate=N/A speed=17.7x    frame=11139 fps=423 q=-0.0 size=N/A time=00:07:44.58 bitrate=N/A speed=17.7x    frame=11338 fps=423 q=-0.0 size=N/A time=00:07:52.88 bitrate=N/A speed=17.6x    frame=11534 fps=422 q=-0.0 size=N/A time=00:08:01.06 bitrate=N/A speed=17.6x    frame=11741 fps=421 q=-0.0 size=N/A time=00:08:09.69 bitrate=N/A speed=17.6x    frame=11899 fps=419 q=-0.0 size=N/A time=00:08:16.28 bitrate=N/A speed=17.5x    frame=12114 fps=419 q=-0.0 size=N/A time=00:08:25.25 bitrate=N/A speed=17.5x    frame=12323 fps=419 q=-0.0 size=N/A time=00:08:33.97 bitrate=N/A speed=17.5x    frame=12516 fps=418 q=-0.0 size=N/A time=00:08:42.02 bitrate=N/A speed=17.4x    frame=12741 fps=419 q=-0.0 size=N/A time=00:08:51.40 bitrate=N/A speed=17.5x    frame=12992 fps=420 q=-0.0 size=N/A time=00:09:01.87 bitrate=N/A speed=17.5x    frame=13238 fps=421 q=-0.0 size=N/A time=00:09:12.13 bitrate=N/A speed=17.5x    frame=13467 fps=421 q=-0.0 size=N/A time=00:09:21.68 bitrate=N/A speed=17.6x    frame=13719 fps=422 q=-0.0 size=N/A time=00:09:32.19 bitrate=N/A speed=17.6x    frame=13965 fps=423 q=-0.0 size=N/A time=00:09:42.45 bitrate=N/A speed=17.6x    frame=14192 fps=423 q=-0.0 size=N/A time=00:09:51.92 bitrate=N/A speed=17.7x    frame=14400 fps=423 q=-0.0 size=N/A time=00:10:00.60 bitrate=N/A speed=17.6x    frame=14623 fps=423 q=-0.0 size=N/A time=00:10:09.90 bitrate=N/A speed=17.6x    frame=14845 fps=423 q=-0.0 size=N/A time=00:10:19.16 bitrate=N/A speed=17.6x    frame=15064 fps=423 q=-0.0 size=N/A time=00:10:28.29 bitrate=N/A speed=17.7x    frame=15265 fps=423 q=-0.0 size=N/A time=00:10:36.67 bitrate=N/A speed=17.6x    frame=15449 fps=422 q=-0.0 size=N/A time=00:10:44.35 bitrate=N/A speed=17.6x    frame=15719 fps=423 q=-0.0 size=N/A time=00:10:55.61 bitrate=N/A speed=17.7x    frame=15957 fps=424 q=-0.0 size=N/A time=00:11:05.53 bitrate=N/A speed=17.7x    frame=16201 fps=425 q=-0.0 size=N/A time=00:11:15.71 bitrate=N/A speed=17.7x    frame=16468 fps=426 q=-0.0 size=N/A time=00:11:26.85 bitrate=N/A speed=17.8x    frame=16749 fps=427 q=-0.0 size=N/A time=00:11:38.57 bitrate=N/A speed=17.8x    frame=16983 fps=428 q=-0.0 size=N/A time=00:11:48.33 bitrate=N/A speed=17.8x    frame=17211 fps=428 q=-0.0 size=N/A time=00:11:57.84 bitrate=N/A speed=17.8x    frame=17446 fps=428 q=-0.0 size=N/A time=00:12:07.64 bitrate=N/A speed=17.9x    frame=17694 fps=429 q=-0.0 size=N/A time=00:12:17.98 bitrate=N/A speed=17.9x    frame=17944 fps=429 q=-0.0 size=N/A time=00:12:28.41 bitrate=N/A speed=17.9x    frame=18187 fps=430 q=-0.0 size=N/A time=00:12:38.54 bitrate=N/A speed=17.9x    frame=18418 fps=430 q=-0.0 size=N/A time=00:12:48.18 bitrate=N/A speed=17.9x    frame=18688 fps=431 q=-0.0 size=N/A time=00:12:59.44 bitrate=N/A speed=  18x    frame=18950 fps=432 q=-0.0 size=N/A time=00:13:10.37 bitrate=N/A speed=  18x    frame=19231 fps=433 q=-0.0 size=N/A time=00:13:22.09 bitrate=N/A speed=18.1x    frame=19491 fps=434 q=-0.0 size=N/A time=00:13:32.93 bitrate=N/A speed=18.1x    frame=19729 fps=435 q=-0.0 size=N/A time=00:13:42.86 bitrate=N/A speed=18.1x    frame=19981 fps=435 q=-0.0 size=N/A time=00:13:53.37 bitrate=N/A speed=18.2x    frame=20240 fps=436 q=-0.0 size=N/A time=00:14:04.17 bitrate=N/A speed=18.2x    frame=20494 fps=437 q=-0.0 size=N/A time=00:14:14.77 bitrate=N/A speed=18.2x    frame=20687 fps=436 q=-0.0 size=N/A time=00:14:22.82 bitrate=N/A speed=18.2x    frame=20933 fps=436 q=-0.0 size=N/A time=00:14:33.08 bitrate=N/A speed=18.2x    frame=21181 fps=437 q=-0.0 size=N/A time=00:14:43.42 bitrate=N/A speed=18.2x    frame=21450 fps=438 q=-0.0 size=N/A time=00:14:54.64 bitrate=N/A speed=18.3x    frame=21676 fps=438 q=-0.0 size=N/A time=00:15:04.06 bitrate=N/A speed=18.3x    frame=21933 fps=438 q=-0.0 size=N/A time=00:15:14.78 bitrate=N/A speed=18.3x    frame=22210 fps=439 q=-0.0 size=N/A time=00:15:26.34 bitrate=N/A speed=18.3x    frame=22455 fps=440 q=-0.0 size=N/A time=00:15:36.56 bitrate=N/A speed=18.3x    frame=22725 fps=441 q=-0.0 size=N/A time=00:15:47.82 bitrate=N/A speed=18.4x    frame=22994 fps=441 q=-0.0 size=N/A time=00:15:59.04 bitrate=N/A speed=18.4x    frame=23266 fps=442 q=-0.0 size=N/A time=00:16:10.38 bitrate=N/A speed=18.4x    frame=23505 fps=443 q=-0.0 size=N/A time=00:16:20.35 bitrate=N/A speed=18.5x    frame=23744 fps=443 q=-0.0 size=N/A time=00:16:30.32 bitrate=N/A speed=18.5x    frame=24003 fps=443 q=-0.0 size=N/A time=00:16:41.12 bitrate=N/A speed=18.5x    frame=24244 fps=444 q=-0.0 size=N/A time=00:16:51.17 bitrate=N/A speed=18.5x    frame=24445 fps=443 q=-0.0 size=N/A time=00:16:59.56 bitrate=N/A speed=18.5x    frame=24690 fps=443 q=-0.0 size=N/A time=00:17:09.77 bitrate=N/A speed=18.5x    frame=24926 fps=443 q=-0.0 size=N/A time=00:17:19.62 bitrate=N/A speed=18.5x    frame=25174 fps=444 q=-0.0 size=N/A time=00:17:29.96 bitrate=N/A speed=18.5x    frame=25390 fps=444 q=-0.0 size=N/A time=00:17:38.97 bitrate=N/A speed=18.5x    frame=25623 fps=444 q=-0.0 size=N/A time=00:17:48.69 bitrate=N/A speed=18.5x    frame=25852 fps=444 q=-0.0 size=N/A time=00:17:58.24 bitrate=N/A speed=18.5x    frame=26086 fps=444 q=-0.0 size=N/A time=00:18:08.00 bitrate=N/A speed=18.5x    frame=26300 fps=443 q=-0.0 size=N/A time=00:18:16.92 bitrate=N/A speed=18.5x    frame=26500 fps=443 q=-0.0 size=N/A time=00:18:25.27 bitrate=N/A speed=18.5x    frame=26741 fps=443 q=-0.0 size=N/A time=00:18:35.32 bitrate=N/A speed=18.5x    frame=27003 fps=444 q=-0.0 size=N/A time=00:18:46.25 bitrate=N/A speed=18.5x    frame=27256 fps=444 q=-0.0 size=N/A time=00:18:56.80 bitrate=N/A speed=18.5x    frame=27486 fps=444 q=-0.0 size=N/A time=00:19:06.39 bitrate=N/A speed=18.5x    frame=27700 fps=444 q=-0.0 size=N/A time=00:19:15.32 bitrate=N/A speed=18.5x    frame=27933 fps=444 q=-0.0 size=N/A time=00:19:25.03 bitrate=N/A speed=18.5x    frame=28184 fps=444 q=-0.0 size=N/A time=00:19:35.50 bitrate=N/A speed=18.5x    frame=28372 fps=444 q=-0.0 size=N/A time=00:19:43.34 bitrate=N/A speed=18.5x    frame=28566 fps=443 q=-0.0 size=N/A time=00:19:51.44 bitrate=N/A speed=18.5x    frame=28818 fps=443 q=-0.0 size=N/A time=00:20:01.95 bitrate=N/A speed=18.5x    frame=29055 fps=444 q=-0.0 size=N/A time=00:20:11.83 bitrate=N/A speed=18.5x    frame=29324 fps=444 q=-0.0 size=N/A time=00:20:23.05 bitrate=N/A speed=18.5x    frame=29570 fps=444 q=-0.0 size=N/A time=00:20:33.31 bitrate=N/A speed=18.5x    frame=29825 fps=445 q=-0.0 size=N/A time=00:20:43.95 bitrate=N/A speed=18.6x    frame=30074 fps=445 q=-0.0 size=N/A time=00:20:54.33 bitrate=N/A speed=18.6x    frame=30263 fps=445 q=-0.0 size=N/A time=00:21:02.21 bitrate=N/A speed=18.5x    frame=30481 fps=444 q=-0.0 size=N/A time=00:21:11.31 bitrate=N/A speed=18.5x    frame=30730 fps=445 q=-0.0 size=N/A time=00:21:21.69 bitrate=N/A speed=18.5x    frame=31003 fps=445 q=-0.0 size=N/A time=00:21:33.08 bitrate=N/A speed=18.6x    frame=31286 fps=446 q=-0.0 size=N/A time=00:21:44.88 bitrate=N/A speed=18.6x    frame=31558 fps=447 q=-0.0 size=N/A time=00:21:56.23 bitrate=N/A speed=18.6x    frame=31786 fps=447 q=-0.0 size=N/A time=00:22:05.74 bitrate=N/A speed=18.6x    frame=31988 fps=446 q=-0.0 size=N/A time=00:22:14.16 bitrate=N/A speed=18.6x    frame=32249 fps=446 q=-0.0 size=N/A time=00:22:25.05 bitrate=N/A speed=18.6x    frame=32436 fps=446 q=-0.0 size=N/A time=00:22:32.85 bitrate=N/A speed=18.6x    frame=32636 fps=445 q=-0.0 size=N/A time=00:22:41.19 bitrate=N/A speed=18.6x    frame=32838 fps=445 q=-0.0 size=N/A time=00:22:49.61 bitrate=N/A speed=18.6x    frame=33042 fps=445 q=-0.0 size=N/A time=00:22:58.12 bitrate=N/A speed=18.5x    frame=33226 fps=444 q=-0.0 size=N/A time=00:23:05.80 bitrate=N/A speed=18.5x    frame=33417 fps=444 q=-0.0 size=N/A time=00:23:13.76 bitrate=N/A speed=18.5x    frame=33596 fps=443 q=-0.0 size=N/A time=00:23:21.23 bitrate=N/A speed=18.5x    frame=33784 fps=442 q=-0.0 size=N/A time=00:23:29.07 bitrate=N/A speed=18.5x    frame=33950 fps=442 q=-0.0 size=N/A time=00:23:35.99 bitrate=N/A speed=18.4x    frame=34118 fps=441 q=-0.0 size=N/A time=00:23:43.00 bitrate=N/A speed=18.4x    frame=34261 fps=440 q=-0.0 size=N/A time=00:23:48.96 bitrate=N/A speed=18.3x    frame=34398 fps=439 q=-0.0 size=N/A time=00:23:54.68 bitrate=N/A speed=18.3x    [Parsed_psnr_10 @ 000001cc02492380] PSNR y:47.285196 u:49.432912 v:49.932837 average:47.945767 min:37.690439 max:inf
[out#0/null @ 000001cc760506c0] video:14878KiB audio:270804KiB subtitle:0KiB other streams:0KiB global headers:0KiB muxing overhead: unknown
frame=34626 fps=439 q=-0.0 Lsize=N/A time=00:24:04.19 bitrate=N/A speed=18.3x    
